<svg width="32" height="32" viewBox="0 0 32 32" fill="none" xmlns="http://www.w3.org/2000/svg">
<rect width="32" height="32" rx="16" fill="#FE0000"/>
<path d="M19.9399 12.8783C19.9399 11.7539 19.0284 10.8423 17.9039 10.8423H13.9075C12.8788 10.8423 12.0447 11.6765 12.0447 12.7052V15.0382H17.9039C19.0284 15.0382 19.9399 14.1266 19.9399 13.0022V12.8783Z" fill="white"/>
<path d="M17.9039 16.8878H12.0447V19.2208C12.0447 20.2495 12.8788 21.0836 13.9075 21.0836H17.9039C19.0284 21.0836 19.9399 20.1721 19.9399 19.0476V18.9238C19.9399 17.7994 19.0284 16.8878 17.9039 16.8878Z" fill="white"/>
<path d="M18.3547 22.9876H13.5417C11.6957 22.9876 10.1938 21.4858 10.1938 19.6398V12.3109C10.1938 10.4649 11.6957 8.96305 13.5417 8.96305H18.3547C20.2164 8.96305 21.7305 10.4776 21.7305 12.3389H24.5397C24.5397 8.92864 21.765 6.15387 18.3547 6.15387H13.5417C10.1467 6.15387 7.38464 8.91592 7.38464 12.3109V19.6398C7.38464 23.0348 10.1467 25.7968 13.5417 25.7968H18.3547C21.765 25.7968 24.5397 23.0221 24.5397 19.6118H21.7305C21.7305 21.4735 20.216 22.9876 18.3547 22.9876Z" fill="white"/>
</svg>
